STARTFONT 2.1
FONT -sun-helmetcondensed-bold-i-semicondensed--17-170-75-75-p-78-adobe-fontspecific
SIZE 17 75 75
FONTBOUNDINGBOX 18 21 -2 -4

STARTPROPERTIES 28
FOUNDRY "sun"
FAMILY_NAME "helmetcondensed"
WEIGHT_NAME "bold"
SLANT "i"
SETWIDTH_NAME "semicondensed"
ADD_STYLE_NAME ""
PIXEL_SIZE 18
POINT_SIZE 170
RESOLUTION_X 75
RESOLUTION_Y 75
SPACING "p"
AVERAGE_WIDTH 78
CHARSET_REGISTRY "adobe"
CHARSET_ENCODING "fontspecific"
COPYRIGHT "© 1999 Sun Microsystems, Inc."
RAW_PIXELSIZE 1000
RAW_POINTSIZE 964
RAW_ASCENT 935
RAW_DESCENT 208
RAW_AVERAGE_WIDTH 4444
FACE_NAME "HelmetCondensedBoldItalic"
_XMBDFED_INFO "Edited with xmbdfed 2.4."
WEIGHT 10
X_HEIGHT -1
QUAD_WIDTH 9
DEFAULT_CHAR 4
FONT_DESCENT 4
FONT_ASCENT 17
ENDPROPERTIES

CHARS 209

STARTCHAR char32
ENCODING 32
SWIDTH 20 0
DWIDTH 4 0
BBX 0 0 0 0
BITMAP
ENDCHAR

STARTCHAR char33
ENCODING 33
SWIDTH 20 0
DWIDTH 4 0
BBX 4 14 0 -1
BITMAP
10
10
30
30
30
20
20
20
40
40
00
00
C0
80
ENDCHAR

STARTCHAR char34
ENCODING 34
SWIDTH 30 0
DWIDTH 6 0
BBX 6 5 1 8
BITMAP
24
6C
48
48
90
ENDCHAR

STARTCHAR char35
ENCODING 35
SWIDTH 50 0
DWIDTH 10 0
BBX 9 13 0 0
BITMAP
1100
1300
1200
1200
7F80
3200
2200
2600
FF00
2400
2400
2400
6400
ENDCHAR

STARTCHAR char36
ENCODING 36
SWIDTH 40 0
DWIDTH 8 0
BBX 8 16 0 -2
BITMAP
04
04
3E
2B
6B
68
28
38
1C
16
D6
D6
D4
78
20
20
ENDCHAR

STARTCHAR char37
ENCODING 37
SWIDTH 19 0
DWIDTH 14 0
BBX 12 12 0 0
BITMAP
7880
5900
D900
DB00
DAE0
D3B0
D730
6730
0B30
0B30
1320
11C0
ENDCHAR

STARTCHAR char38
ENCODING 38
SWIDTH 45 0
DWIDTH 9 0
BBX 8 12 0 0
BITMAP
1C
36
36
36
1C
38
48
C9
C7
C6
C6
3B
ENDCHAR

STARTCHAR char39
ENCODING 39
SWIDTH 15 0
DWIDTH 3 0
BBX 2 5 2 8
BITMAP
40
C0
C0
80
80
ENDCHAR

STARTCHAR char40
ENCODING 40
SWIDTH 30 0
DWIDTH 6 0
BBX 6 16 1 -3
BITMAP
08
18
30
60
60
60
C0
C0
C0
C0
C0
C0
C0
40
60
20
ENDCHAR

STARTCHAR char41
ENCODING 41
SWIDTH 30 0
DWIDTH 6 0
BBX 5 16 -2 -3
BITMAP
20
10
10
18
18
18
18
18
18
18
10
30
20
60
40
80
ENDCHAR

STARTCHAR char42
ENCODING 42
SWIDTH 35 0
DWIDTH 7 0
BBX 5 6 2 7
BITMAP
20
A0
F8
60
90
10
ENDCHAR

STARTCHAR char43
ENCODING 43
SWIDTH 45 0
DWIDTH 9 0
BBX 8 8 0 1
BITMAP
18
18
18
FF
18
18
18
18
ENDCHAR

STARTCHAR char44
ENCODING 44
SWIDTH 15 0
DWIDTH 3 0
BBX 2 4 -1 -2
BITMAP
40
40
C0
80
ENDCHAR

STARTCHAR char45
ENCODING 45
SWIDTH 35 0
DWIDTH 7 0
BBX 4 1 1 4
BITMAP
F0
ENDCHAR

STARTCHAR char46
ENCODING 46
SWIDTH 15 0
DWIDTH 3 0
BBX 2 2 -1 -1
BITMAP
40
80
ENDCHAR

STARTCHAR char47
ENCODING 47
SWIDTH 25 0
DWIDTH 5 0
BBX 8 13 -1 0
BITMAP
01
02
02
04
04
08
08
10
10
20
60
40
C0
ENDCHAR

STARTCHAR char48
ENCODING 48
SWIDTH 40 0
DWIDTH 8 0
BBX 8 12 0 0
BITMAP
1E
23
63
63
43
C3
C2
C2
C6
C4
CC
78
ENDCHAR

STARTCHAR char49
ENCODING 49
SWIDTH 40 0
DWIDTH 8 0
BBX 5 13 1 0
BITMAP
08
18
78
18
10
10
30
30
20
20
20
60
60
ENDCHAR

STARTCHAR char50
ENCODING 50
SWIDTH 40 0
DWIDTH 8 0
BBX 8 12 0 0
BITMAP
1E
23
63
03
03
06
1C
30
60
C0
80
FC
ENDCHAR

STARTCHAR char51
ENCODING 51
SWIDTH 40 0
DWIDTH 8 0
BBX 8 12 0 0
BITMAP
1E
23
23
03
06
1C
04
06
06
C6
44
38
ENDCHAR

STARTCHAR char52
ENCODING 52
SWIDTH 40 0
DWIDTH 8 0
BBX 8 13 0 0
BITMAP
03
03
06
0A
1A
32
26
44
C4
FE
0C
0C
08
ENDCHAR

STARTCHAR char53
ENCODING 53
SWIDTH 40 0
DWIDTH 8 0
BBX 8 12 0 0
BITMAP
1F
30
20
20
7C
66
06
06
06
C6
C4
78
ENDCHAR

STARTCHAR char54
ENCODING 54
SWIDTH 40 0
DWIDTH 8 0
BBX 8 12 0 0
BITMAP
1E
23
63
40
5C
E6
C6
C6
C6
C6
CC
78
ENDCHAR

STARTCHAR char55
ENCODING 55
SWIDTH 40 0
DWIDTH 8 0
BBX 7 12 1 0
BITMAP
7E
06
04
08
10
10
20
20
60
40
40
C0
ENDCHAR

STARTCHAR char56
ENCODING 56
SWIDTH 40 0
DWIDTH 8 0
BBX 8 12 0 0
BITMAP
1E
63
63
63
66
3C
46
C6
C6
C6
C4
78
ENDCHAR

STARTCHAR char57
ENCODING 57
SWIDTH 40 0
DWIDTH 8 0
BBX 8 12 0 0
BITMAP
3C
63
63
43
43
43
67
3A
06
C6
CC
78
ENDCHAR

STARTCHAR char58
ENCODING 58
SWIDTH 20 0
DWIDTH 4 0
BBX 4 10 0 -1
BITMAP
20
20
00
00
00
00
00
00
C0
80
ENDCHAR

STARTCHAR char59
ENCODING 59
SWIDTH 20 0
DWIDTH 4 0
BBX 4 11 0 -2
BITMAP
20
20
00
00
00
00
00
40
C0
C0
80
ENDCHAR

STARTCHAR char60
ENCODING 60
SWIDTH 50 0
DWIDTH 10 0
BBX 9 9 0 0
BITMAP
0080
0300
0C00
7000
C000
7000
1C00
0300
0080
ENDCHAR

STARTCHAR char61
ENCODING 61
SWIDTH 45 0
DWIDTH 9 0
BBX 8 4 0 3
BITMAP
FF
00
00
FF
ENDCHAR

STARTCHAR char62
ENCODING 62
SWIDTH 50 0
DWIDTH 10 0
BBX 9 9 0 0
BITMAP
C000
7000
1C00
0300
0080
0300
0C00
7000
C000
ENDCHAR

STARTCHAR char63
ENCODING 63
SWIDTH 35 0
DWIDTH 7 0
BBX 7 13 1 -1
BITMAP
7C
86
86
0E
1C
30
60
40
40
00
00
C0
80
ENDCHAR

STARTCHAR char64
ENCODING 64
SWIDTH 44 0
DWIDTH 19 0
BBX 14 13 2 0
BITMAP
07C0
1860
3018
67A8
6CCC
D84C
D84C
D8C8
D990
6EE0
3018
1830
0FC0
ENDCHAR

STARTCHAR char65
ENCODING 65
SWIDTH 40 0
DWIDTH 8 0
BBX 8 12 -1 0
BITMAP
06
06
0A
0A
12
32
22
7E
43
C3
83
83
ENDCHAR

STARTCHAR char66
ENCODING 66
SWIDTH 45 0
DWIDTH 9 0
BBX 9 12 0 0
BITMAP
3F00
2180
2180
6180
6300
7C00
4700
4300
C300
C300
8600
FC00
ENDCHAR

STARTCHAR char67
ENCODING 67
SWIDTH 45 0
DWIDTH 9 0
BBX 9 12 0 0
BITMAP
1E00
3100
6180
6000
C000
C000
C000
C000
C300
C200
4600
3C00
ENDCHAR

STARTCHAR char68
ENCODING 68
SWIDTH 50 0
DWIDTH 10 0
BBX 10 12 -1 0
BITMAP
1F00
1080
10C0
30C0
30C0
20C0
20C0
60C0
6180
4180
4300
7E00
ENDCHAR

STARTCHAR char69
ENCODING 69
SWIDTH 40 0
DWIDTH 8 0
BBX 8 12 0 0
BITMAP
3F
20
20
60
60
7E
40
40
C0
C0
80
FC
ENDCHAR

STARTCHAR char70
ENCODING 70
SWIDTH 40 0
DWIDTH 8 0
BBX 8 12 0 0
BITMAP
3F
20
20
60
60
7E
40
40
C0
C0
80
80
ENDCHAR

STARTCHAR char71
ENCODING 71
SWIDTH 45 0
DWIDTH 9 0
BBX 9 12 0 0
BITMAP
1F00
3180
6180
6000
C000
C000
CF80
C100
C100
C300
6700
3A00
ENDCHAR

STARTCHAR char72
ENCODING 72
SWIDTH 50 0
DWIDTH 10 0
BBX 10 12 0 0
BITMAP
2080
2080
2080
6180
6180
7F00
4100
C300
C300
8200
8200
8200
ENDCHAR

STARTCHAR char73
ENCODING 73
SWIDTH 20 0
DWIDTH 4 0
BBX 4 12 0 0
BITMAP
30
30
20
20
60
60
60
40
C0
C0
C0
80
ENDCHAR

STARTCHAR char74
ENCODING 74
SWIDTH 35 0
DWIDTH 7 0
BBX 8 12 -1 0
BITMAP
01
01
03
03
02
02
06
06
06
C4
CC
78
ENDCHAR

STARTCHAR char75
ENCODING 75
SWIDTH 40 0
DWIDTH 8 0
BBX 10 12 0 0
BITMAP
3080
2180
2700
6C00
7800
7800
6C00
CC00
C400
C600
8200
8200
ENDCHAR

STARTCHAR char76
ENCODING 76
SWIDTH 35 0
DWIDTH 7 0
BBX 6 12 0 0
BITMAP
30
20
20
60
60
40
40
40
C0
C0
80
FC
ENDCHAR

STARTCHAR char77
ENCODING 77
SWIDTH 14 0
DWIDTH 13 0
BBX 13 12 -1 0
BITMAP
1818
1828
3838
3858
2850
2890
29B0
6930
6B30
4A20
4E60
4E20
ENDCHAR

STARTCHAR char78
ENCODING 78
SWIDTH 50 0
DWIDTH 10 0
BBX 10 12 0 0
BITMAP
30C0
38C0
2880
6880
4880
4980
4980
CD00
C500
8700
8700
8600
ENDCHAR

STARTCHAR char79
ENCODING 79
SWIDTH 45 0
DWIDTH 9 0
BBX 9 12 0 0
BITMAP
1F00
3180
6180
6180
4180
C180
C180
C100
C100
C300
4600
3C00
ENDCHAR

STARTCHAR char80
ENCODING 80
SWIDTH 40 0
DWIDTH 8 0
BBX 9 12 0 0
BITMAP
3F00
2180
2180
6180
6180
6300
7E00
C000
C000
C000
8000
8000
ENDCHAR

STARTCHAR char81
ENCODING 81
SWIDTH 45 0
DWIDTH 9 0
BBX 9 13 0 -1
BITMAP
1F00
3180
6180
6180
C180
C180
C180
C100
C100
CB00
4600
3F00
0100
ENDCHAR

STARTCHAR char82
ENCODING 82
SWIDTH 45 0
DWIDTH 9 0
BBX 9 12 0 0
BITMAP
3F00
2180
2180
6180
6180
7F00
4700
C300
C300
C300
8300
8300
ENDCHAR

STARTCHAR char83
ENCODING 83
SWIDTH 45 0
DWIDTH 9 0
BBX 9 12 -1 0
BITMAP
0F80
1080
3080
3000
3800
1E00
0300
0180
C180
C180
6300
3E00
ENDCHAR

STARTCHAR char84
ENCODING 84
SWIDTH 35 0
DWIDTH 7 0
BBX 7 12 1 0
BITMAP
FE
10
10
30
30
20
20
60
60
60
40
40
ENDCHAR

STARTCHAR char85
ENCODING 85
SWIDTH 45 0
DWIDTH 9 0
BBX 10 12 0 0
BITMAP
2080
2080
6080
6180
4180
4100
C100
C300
C300
C200
C600
7C00
ENDCHAR

STARTCHAR char86
ENCODING 86
SWIDTH 40 0
DWIDTH 8 0
BBX 8 12 1 0
BITMAP
E1
E1
E3
E2
E6
E4
6C
68
78
70
70
60
ENDCHAR

STARTCHAR char87
ENCODING 87
SWIDTH 9 0
DWIDTH 12 0
BBX 13 12 1 0
BITMAP
C718
C718
CF10
CB30
CB20
DB60
D340
F340
A3C0
A380
E380
C300
ENDCHAR

STARTCHAR char88
ENCODING 88
SWIDTH 40 0
DWIDTH 8 0
BBX 10 12 -2 0
BITMAP
30C0
10C0
1980
0B00
0E00
0400
0E00
1E00
1200
3300
6100
4180
ENDCHAR

STARTCHAR char89
ENCODING 89
SWIDTH 40 0
DWIDTH 8 0
BBX 8 12 1 0
BITMAP
C2
C6
44
4C
58
70
30
20
60
60
40
40
ENDCHAR

STARTCHAR char90
ENCODING 90
SWIDTH 35 0
DWIDTH 7 0
BBX 8 12 -1 0
BITMAP
3F
03
02
04
0C
08
18
30
20
60
C0
FE
ENDCHAR

STARTCHAR char91
ENCODING 91
SWIDTH 20 0
DWIDTH 4 0
BBX 7 16 -1 -3
BITMAP
0E
18
10
10
10
10
30
20
20
20
60
60
40
40
40
E0
ENDCHAR

STARTCHAR char92
ENCODING 92
SWIDTH 25 0
DWIDTH 5 0
BBX 5 13 0 0
BITMAP
80
80
40
40
40
60
20
20
30
10
10
18
08
ENDCHAR

STARTCHAR char93
ENCODING 93
SWIDTH 20 0
DWIDTH 4 0
BBX 7 16 -2 -3
BITMAP
0E
04
04
04
0C
08
08
08
08
18
10
10
10
30
30
E0
ENDCHAR

STARTCHAR char94
ENCODING 94
SWIDTH 0 0
DWIDTH 0 0
BBX 4 2 0 14
BITMAP
60
D0
ENDCHAR

STARTCHAR char95
ENCODING 95
SWIDTH 4 0
DWIDTH 11 0
BBX 10 1 0 -2
BITMAP
FFC0
ENDCHAR

STARTCHAR char96
ENCODING 96
SWIDTH 0 0
DWIDTH 0 0
BBX 3 2 -1 10
BITMAP
40
20
ENDCHAR

STARTCHAR char97
ENCODING 97
SWIDTH 35 0
DWIDTH 7 0
BBX 8 9 -1 0
BITMAP
1E
23
03
07
3E
C6
C6
CE
77
ENDCHAR

STARTCHAR char98
ENCODING 98
SWIDTH 40 0
DWIDTH 8 0
BBX 8 12 -1 0
BITMAP
10
10
30
3E
23
23
63
43
43
42
66
FC
ENDCHAR

STARTCHAR char99
ENCODING 99
SWIDTH 35 0
DWIDTH 7 0
BBX 7 9 0 0
BITMAP
3C
46
46
C0
C0
C0
CC
C8
70
ENDCHAR

STARTCHAR char100
ENCODING 100
SWIDTH 40 0
DWIDTH 8 0
BBX 8 12 0 0
BITMAP
03
03
02
3A
66
46
C4
C4
C4
CC
CC
78
ENDCHAR

STARTCHAR char101
ENCODING 101
SWIDTH 35 0
DWIDTH 7 0
BBX 7 9 0 0
BITMAP
3C
44
46
FE
C0
C0
C6
CC
70
ENDCHAR

STARTCHAR char102
ENCODING 102
SWIDTH 20 0
DWIDTH 4 0
BBX 5 12 0 0
BITMAP
18
30
20
70
20
60
40
40
40
C0
C0
80
ENDCHAR

STARTCHAR char103
ENCODING 103
SWIDTH 40 0
DWIDTH 8 0
BBX 8 12 -1 -3
BITMAP
3D
63
63
C2
C2
C2
C6
EC
74
04
CC
78
ENDCHAR

STARTCHAR char104
ENCODING 104
SWIDTH 40 0
DWIDTH 8 0
BBX 8 12 0 0
BITMAP
20
20
20
7E
63
43
42
C6
C6
84
84
84
ENDCHAR

STARTCHAR char105
ENCODING 105
SWIDTH 15 0
DWIDTH 3 0
BBX 4 12 0 0
BITMAP
30
20
00
20
60
40
40
40
C0
C0
80
80
ENDCHAR

STARTCHAR char106
ENCODING 106
SWIDTH 15 0
DWIDTH 3 0
BBX 6 15 -2 -3
BITMAP
0C
08
00
08
18
10
10
10
10
30
20
20
20
60
C0
ENDCHAR

STARTCHAR char107
ENCODING 107
SWIDTH 30 0
DWIDTH 6 0
BBX 8 12 0 0
BITMAP
20
20
20
66
6C
58
70
F0
D8
88
88
8C
ENDCHAR

STARTCHAR char108
ENCODING 108
SWIDTH 15 0
DWIDTH 3 0
BBX 4 12 0 0
BITMAP
30
20
20
20
60
60
40
40
C0
C0
80
80
ENDCHAR

STARTCHAR char109
ENCODING 109
SWIDTH 9 0
DWIDTH 12 0
BBX 13 9 -1 0
BITMAP
3FF8
3318
2318
2218
6210
4230
4630
4620
4420
ENDCHAR

STARTCHAR char110
ENCODING 110
SWIDTH 40 0
DWIDTH 8 0
BBX 8 9 0 0
BITMAP
7F
63
43
47
46
C6
86
84
84
ENDCHAR

STARTCHAR char111
ENCODING 111
SWIDTH 40 0
DWIDTH 8 0
BBX 7 9 0 0
BITMAP
3C
66
46
C6
C6
C6
C4
CC
78
ENDCHAR

STARTCHAR char112
ENCODING 112
SWIDTH 40 0
DWIDTH 8 0
BBX 9 12 -1 -3
BITMAP
3F00
3180
2180
2180
6180
6380
6300
6700
5C00
C000
8000
8000
ENDCHAR

STARTCHAR char113
ENCODING 113
SWIDTH 40 0
DWIDTH 8 0
BBX 7 12 0 -3
BITMAP
3A
66
46
C6
C4
C4
C4
CC
7C
08
08
08
ENDCHAR

STARTCHAR char114
ENCODING 114
SWIDTH 25 0
DWIDTH 5 0
BBX 6 9 0 0
BITMAP
38
60
60
40
40
C0
80
80
80
ENDCHAR

STARTCHAR char115
ENCODING 115
SWIDTH 30 0
DWIDTH 6 0
BBX 7 9 -1 0
BITMAP
3C
66
60
70
1C
04
C4
44
38
ENDCHAR

STARTCHAR char116
ENCODING 116
SWIDTH 20 0
DWIDTH 4 0
BBX 5 12 0 0
BITMAP
30
20
20
F8
20
60
40
40
C0
C0
C0
E0
ENDCHAR

STARTCHAR char117
ENCODING 117
SWIDTH 40 0
DWIDTH 8 0
BBX 8 9 0 0
BITMAP
62
42
42
46
C6
C4
84
CC
7C
ENDCHAR

STARTCHAR char118
ENCODING 118
SWIDTH 30 0
DWIDTH 6 0
BBX 7 9 0 0
BITMAP
E6
66
6C
6C
68
58
50
60
60
ENDCHAR

STARTCHAR char119
ENCODING 119
SWIDTH 45 0
DWIDTH 9 0
BBX 11 9 0 0
BITMAP
CC40
CCC0
DCC0
DD80
F580
E700
E700
E600
C600
ENDCHAR

STARTCHAR char120
ENCODING 120
SWIDTH 30 0
DWIDTH 6 0
BBX 8 9 -1 0
BITMAP
23
36
14
18
18
38
6C
C4
84
ENDCHAR

STARTCHAR char121
ENCODING 121
SWIDTH 30 0
DWIDTH 6 0
BBX 8 12 -2 -3
BITMAP
31
33
32
34
24
28
28
38
30
30
30
E0
ENDCHAR

STARTCHAR char122
ENCODING 122
SWIDTH 30 0
DWIDTH 6 0
BBX 8 9 -1 0
BITMAP
3F
02
04
08
18
30
60
40
FC
ENDCHAR

STARTCHAR char123
ENCODING 123
SWIDTH 30 0
DWIDTH 6 0
BBX 4 15 1 -3
BITMAP
70
60
60
60
60
60
40
80
40
40
60
60
60
60
30
ENDCHAR

STARTCHAR char124
ENCODING 124
SWIDTH 25 0
DWIDTH 5 0
BBX 2 13 1 0
BITMAP
C0
C0
C0
C0
C0
C0
C0
C0
C0
C0
C0
C0
C0
ENDCHAR

STARTCHAR char125
ENCODING 125
SWIDTH 30 0
DWIDTH 6 0
BBX 4 15 1 -3
BITMAP
C0
60
60
60
60
60
20
10
60
60
60
60
60
60
C0
ENDCHAR

STARTCHAR char126
ENCODING 126
SWIDTH 0 0
DWIDTH 0 0
BBX 5 2 0 14
BITMAP
48
F0
ENDCHAR

STARTCHAR char128
ENCODING 128
SWIDTH 50 0
DWIDTH 10 0
BBX 10 12 -1 0
BITMAP
0780
0840
1840
1000
7F00
FF00
3000
3000
3080
3180
3300
1E00
ENDCHAR

STARTCHAR char130
ENCODING 130
SWIDTH 15 0
DWIDTH 3 0
BBX 3 4 -1 -2
BITMAP
20
60
40
40
ENDCHAR

STARTCHAR char131
ENCODING 131
SWIDTH 0 0
DWIDTH 0 0
BBX 4 2 0 14
BITMAP
60
D0
ENDCHAR

STARTCHAR char132
ENCODING 132
SWIDTH 25 0
DWIDTH 5 0
BBX 5 4 -1 -2
BITMAP
48
48
D8
90
ENDCHAR

STARTCHAR char133
ENCODING 133
SWIDTH 44 0
DWIDTH 19 0
BBX 14 1 2 0
BITMAP
C30C
ENDCHAR

STARTCHAR char134
ENCODING 134
SWIDTH 40 0
DWIDTH 8 0
BBX 8 15 0 -3
BITMAP
08
08
08
7F
18
10
10
10
30
20
20
20
60
60
40
ENDCHAR

STARTCHAR char135
ENCODING 135
SWIDTH 39 0
DWIDTH 18 0
BBX 0 0 0 0
BITMAP
ENDCHAR

STARTCHAR char136
ENCODING 136
SWIDTH 0 0
DWIDTH 0 0
BBX 5 2 -1 10
BITMAP
70
90
ENDCHAR

STARTCHAR char137
ENCODING 137
SWIDTH 39 0
DWIDTH 18 0
BBX 0 0 0 0
BITMAP
ENDCHAR

STARTCHAR char139
ENCODING 139
SWIDTH 30 0
DWIDTH 6 0
BBX 2 6 2 2
BITMAP
40
40
80
80
C0
40
ENDCHAR

STARTCHAR char140
ENCODING 140
SWIDTH 14 0
DWIDTH 13 0
BBX 14 12 0 0
BITMAP
1EFC
3180
6180
4180
4100
C1F0
C100
C300
C200
C600
C600
7FF0
ENDCHAR

STARTCHAR char142
ENCODING 142
SWIDTH 39 0
DWIDTH 18 0
BBX 0 0 0 0
BITMAP
ENDCHAR

STARTCHAR char143
ENCODING 143
SWIDTH 39 0
DWIDTH 18 0
BBX 0 0 0 0
BITMAP
ENDCHAR

STARTCHAR char144
ENCODING 144
SWIDTH 39 0
DWIDTH 18 0
BBX 0 0 0 0
BITMAP
ENDCHAR

STARTCHAR char145
ENCODING 145
SWIDTH 15 0
DWIDTH 3 0
BBX 3 4 1 8
BITMAP
60
60
40
80
ENDCHAR

STARTCHAR char146
ENCODING 146
SWIDTH 15 0
DWIDTH 3 0
BBX 3 5 1 8
BITMAP
60
40
40
C0
80
ENDCHAR

STARTCHAR char147
ENCODING 147
SWIDTH 25 0
DWIDTH 5 0
BBX 6 4 1 8
BITMAP
6C
74
D8
D0
ENDCHAR

STARTCHAR char148
ENCODING 148
SWIDTH 25 0
DWIDTH 5 0
BBX 5 5 1 8
BITMAP
48
48
D8
90
90
ENDCHAR

STARTCHAR char149
ENCODING 149
SWIDTH 30 0
DWIDTH 6 0
BBX 5 5 0 4
BITMAP
70
F8
F8
F8
70
ENDCHAR

STARTCHAR char150
ENCODING 150
SWIDTH 40 0
DWIDTH 8 0
BBX 8 1 0 4
BITMAP
FE
ENDCHAR

STARTCHAR char151
ENCODING 151
SWIDTH 45 0
DWIDTH 9 0
BBX 8 1 0 5
BITMAP
FF
ENDCHAR

STARTCHAR char152
ENCODING 152
SWIDTH 0 0
DWIDTH 0 0
BBX 5 1 -1 11
BITMAP
F8
ENDCHAR

STARTCHAR char153
ENCODING 153
SWIDTH 24 0
DWIDTH 15 0
BBX 14 6 0 5
BITMAP
FD0C
A194
6194
61AC
616C
735C
ENDCHAR

STARTCHAR char155
ENCODING 155
SWIDTH 30 0
DWIDTH 6 0
BBX 2 6 2 2
BITMAP
80
80
40
40
C0
80
ENDCHAR

STARTCHAR char156
ENCODING 156
SWIDTH 9 0
DWIDTH 12 0
BBX 13 9 -1 0
BITMAP
3EF0
6318
6318
C3F8
C200
C200
C210
C730
7DC0
ENDCHAR

STARTCHAR char157
ENCODING 157
SWIDTH 39 0
DWIDTH 18 0
BBX 0 0 0 0
BITMAP
ENDCHAR

STARTCHAR char159
ENCODING 159
SWIDTH 40 0
DWIDTH 8 0
BBX 8 15 1 0
BITMAP
34
04
00
C2
46
44
4C
58
70
30
20
60
60
40
40
ENDCHAR

STARTCHAR char160
ENCODING 160
SWIDTH 20 0
DWIDTH 4 0
BBX 0 0 0 0
BITMAP
ENDCHAR

STARTCHAR char161
ENCODING 161
SWIDTH 20 0
DWIDTH 4 0
BBX 4 12 0 0
BITMAP
10
10
00
20
20
20
60
60
40
40
C0
40
ENDCHAR

STARTCHAR char162
ENCODING 162
SWIDTH 35 0
DWIDTH 7 0
BBX 7 13 0 -2
BITMAP
08
08
3C
76
56
D0
D0
D0
EC
EC
78
20
20
ENDCHAR

STARTCHAR char163
ENCODING 163
SWIDTH 40 0
DWIDTH 8 0
BBX 10 12 -1 0
BITMAP
0F80
1080
3080
3000
3000
7E00
3000
3000
3000
2000
6040
5F80
ENDCHAR

STARTCHAR char164
ENCODING 164
SWIDTH 0 0
DWIDTH 0 0
BBX 3 2 1 14
BITMAP
60
40
ENDCHAR

STARTCHAR char165
ENCODING 165
SWIDTH 0 0
DWIDTH 0 0
BBX 5 2 0 14
BITMAP
90
60
ENDCHAR

STARTCHAR char166
ENCODING 166
SWIDTH 39 0
DWIDTH 18 0
BBX 0 0 0 0
BITMAP
ENDCHAR

STARTCHAR char167
ENCODING 167
SWIDTH 40 0
DWIDTH 8 0
BBX 8 15 0 -3
BITMAP
1E
33
30
10
7C
6E
47
63
37
16
08
0C
CC
CC
78
ENDCHAR

STARTCHAR char168
ENCODING 168
SWIDTH 0 0
DWIDTH 0 0
BBX 5 2 -1 10
BITMAP
D8
10
ENDCHAR

STARTCHAR char169
ENCODING 169
SWIDTH 19 0
DWIDTH 14 0
BBX 13 12 0 0
BITMAP
0F00
10C0
2020
47B0
C890
D818
D818
D818
4890
4720
2040
1F80
ENDCHAR

STARTCHAR char170
ENCODING 170
SWIDTH 0 0
DWIDTH 0 0
BBX 4 2 0 13
BITMAP
D0
10
ENDCHAR

STARTCHAR char171
ENCODING 171
SWIDTH 40 0
DWIDTH 8 0
BBX 7 6 0 2
BITMAP
12
24
48
D8
48
24
ENDCHAR

STARTCHAR char172
ENCODING 172
SWIDTH 9 0
DWIDTH 12 0
BBX 12 5 0 0
BITMAP
FFF0
0030
0030
0030
0030
ENDCHAR

STARTCHAR char173
ENCODING 173
SWIDTH 39 0
DWIDTH 18 0
BBX 0 0 0 0
BITMAP
ENDCHAR

STARTCHAR char174
ENCODING 174
SWIDTH 19 0
DWIDTH 14 0
BBX 13 12 0 0
BITMAP
0F00
10C0
2020
5F30
CD90
CD98
CE18
CF18
CD90
5DE0
2040
1F80
ENDCHAR

STARTCHAR char175
ENCODING 175
SWIDTH 39 0
DWIDTH 18 0
BBX 0 0 0 0
BITMAP
ENDCHAR

STARTCHAR char176
ENCODING 176
SWIDTH 20 0
DWIDTH 4 0
BBX 6 6 1 6
BITMAP
30
48
CC
CC
48
30
ENDCHAR

STARTCHAR char177
ENCODING 177
SWIDTH 45 0
DWIDTH 9 0
BBX 9 11 0 0
BITMAP
1800
1800
1800
1800
FF80
1800
1800
1800
1800
0000
FF80
ENDCHAR

STARTCHAR char179
ENCODING 179
SWIDTH 39 0
DWIDTH 18 0
BBX 0 0 0 0
BITMAP
ENDCHAR

STARTCHAR char180
ENCODING 180
SWIDTH 0 0
DWIDTH 0 0
BBX 3 2 1 10
BITMAP
40
80
ENDCHAR

STARTCHAR char182
ENCODING 182
SWIDTH 14 0
DWIDTH 13 0
BBX 8 15 2 -3
BITMAP
7F
F6
F6
F6
F6
76
36
36
36
36
36
36
36
36
36
ENDCHAR

STARTCHAR char183
ENCODING 183
SWIDTH 15 0
DWIDTH 3 0
BBX 2 1 1 5
BITMAP
C0
ENDCHAR

STARTCHAR char184
ENCODING 184
SWIDTH 0 0
DWIDTH 0 0
BBX 2 3 -2 -4
BITMAP
40
40
80
ENDCHAR

STARTCHAR char186
ENCODING 186
SWIDTH 0 0
DWIDTH 0 0
BBX 5 2 0 14
BITMAP
48
F0
ENDCHAR

STARTCHAR char187
ENCODING 187
SWIDTH 40 0
DWIDTH 8 0
BBX 6 6 0 2
BITMAP
48
48
24
24
48
90
ENDCHAR

STARTCHAR char189
ENCODING 189
SWIDTH 39 0
DWIDTH 18 0
BBX 0 0 0 0
BITMAP
ENDCHAR

STARTCHAR char190
ENCODING 190
SWIDTH 39 0
DWIDTH 18 0
BBX 0 0 0 0
BITMAP
ENDCHAR

STARTCHAR char191
ENCODING 191
SWIDTH 35 0
DWIDTH 7 0
BBX 7 12 -1 0
BITMAP
06
04
00
04
0C
18
30
60
C0
C6
E4
7C
ENDCHAR

STARTCHAR char192
ENCODING 192
SWIDTH 40 0
DWIDTH 8 0
BBX 8 15 -1 0
BITMAP
04
00
06
06
0E
0A
1A
12
32
22
7E
43
C3
83
83
ENDCHAR

STARTCHAR char193
ENCODING 193
SWIDTH 40 0
DWIDTH 8 0
BBX 8 16 -1 0
BITMAP
03
02
00
06
06
0A
0A
1A
12
32
22
7E
43
C3
83
83
ENDCHAR

STARTCHAR char194
ENCODING 194
SWIDTH 40 0
DWIDTH 8 0
BBX 8 16 -1 0
BITMAP
03
05
00
06
06
0E
0A
1A
12
32
22
7E
43
C3
83
83
ENDCHAR

STARTCHAR char195
ENCODING 195
SWIDTH 40 0
DWIDTH 8 0
BBX 10 16 -2 0
BITMAP
0240
0780
0000
0300
0300
0700
0500
0D00
0900
1900
1100
3F00
2180
6180
4180
4180
ENDCHAR

STARTCHAR char196
ENCODING 196
SWIDTH 40 0
DWIDTH 8 0
BBX 10 16 -2 0
BITMAP
0200
06C0
0480
0000
0300
0700
0500
0D00
0900
1900
1100
3F80
2180
6180
4180
4180
ENDCHAR

STARTCHAR char197
ENCODING 197
SWIDTH 40 0
DWIDTH 8 0
BBX 8 17 -1 0
BITMAP
07
0D
0D
0F
02
06
06
0A
0A
12
32
22
7F
43
C3
83
83
ENDCHAR

STARTCHAR char198
ENCODING 198
SWIDTH 14 0
DWIDTH 13 0
BBX 15 12 -1 0
BITMAP
01FE
0140
0340
02C0
04C0
0CFC
0880
1F80
3180
2100
6100
41F8
ENDCHAR

STARTCHAR char199
ENCODING 199
SWIDTH 45 0
DWIDTH 9 0
BBX 9 16 0 -4
BITMAP
1E00
3100
6180
6000
C000
C000
C000
C000
C300
C200
4600
3C00
0000
1000
1000
2000
ENDCHAR

STARTCHAR char200
ENCODING 200
SWIDTH 40 0
DWIDTH 8 0
BBX 8 15 0 0
BITMAP
08
00
00
3F
20
20
60
60
7E
40
40
C0
C0
80
FC
ENDCHAR

STARTCHAR char201
ENCODING 201
SWIDTH 40 0
DWIDTH 8 0
BBX 8 16 0 0
BITMAP
02
04
00
00
3F
20
20
60
60
7E
40
40
C0
C0
80
FC
ENDCHAR

STARTCHAR char202
ENCODING 202
SWIDTH 40 0
DWIDTH 8 0
BBX 8 16 0 0
BITMAP
0C
1A
00
00
3F
20
20
60
60
7E
40
40
C0
C0
80
FC
ENDCHAR

STARTCHAR char203
ENCODING 203
SWIDTH 40 0
DWIDTH 8 0
BBX 8 15 0 0
BITMAP
1A
02
00
3F
20
20
60
60
7E
40
40
C0
C0
80
FC
ENDCHAR

STARTCHAR char204
ENCODING 204
SWIDTH 20 0
DWIDTH 4 0
BBX 4 15 0 0
BITMAP
20
00
30
30
20
20
20
60
60
40
40
C0
C0
C0
80
ENDCHAR

STARTCHAR char205
ENCODING 205
SWIDTH 20 0
DWIDTH 4 0
BBX 6 16 0 0
BITMAP
08
10
00
30
30
20
20
20
60
60
40
40
C0
C0
C0
80
ENDCHAR

STARTCHAR char206
ENCODING 206
SWIDTH 20 0
DWIDTH 4 0
BBX 6 16 0 0
BITMAP
18
28
00
30
30
20
20
20
60
60
40
40
C0
C0
C0
80
ENDCHAR

STARTCHAR char207
ENCODING 207
SWIDTH 20 0
DWIDTH 4 0
BBX 6 15 0 0
BITMAP
6C
08
30
30
20
20
20
60
60
40
40
C0
C0
C0
80
ENDCHAR

STARTCHAR char209
ENCODING 209
SWIDTH 50 0
DWIDTH 10 0
BBX 10 16 0 0
BITMAP
0780
0B00
0000
0000
30C0
3880
6880
6880
4880
4980
4900
CD00
C500
8700
8700
8600
ENDCHAR

STARTCHAR char210
ENCODING 210
SWIDTH 45 0
DWIDTH 9 0
BBX 9 15 0 0
BITMAP
0400
0000
0000
1F00
3180
6180
6180
4180
C180
C180
C100
C100
C300
4600
3C00
ENDCHAR

STARTCHAR char211
ENCODING 211
SWIDTH 45 0
DWIDTH 9 0
BBX 9 16 0 0
BITMAP
0100
0200
0000
0000
1F00
3180
6180
6180
4180
C180
C180
C100
C100
C300
6600
3C00
ENDCHAR

STARTCHAR char212
ENCODING 212
SWIDTH 45 0
DWIDTH 9 0
BBX 9 16 0 0
BITMAP
0600
0D00
0000
0000
1F00
3180
6180
6180
4180
C180
C180
C100
C100
C300
4600
3C00
ENDCHAR

STARTCHAR char213
ENCODING 213
SWIDTH 45 0
DWIDTH 9 0
BBX 9 16 0 0
BITMAP
0780
0B00
0000
0000
1F00
3180
6180
6180
4180
C180
C180
C100
C100
C300
6600
3C00
ENDCHAR

STARTCHAR char214
ENCODING 214
SWIDTH 45 0
DWIDTH 9 0
BBX 9 16 0 0
BITMAP
0C00
0D80
0900
0000
1F00
3180
6180
6180
4180
C180
C180
C100
C100
C300
4600
3C00
ENDCHAR

STARTCHAR char216
ENCODING 216
SWIDTH 45 0
DWIDTH 9 0
BBX 10 12 0 0
BITMAP
1FC0
3080
6180
62C0
6680
CC80
C880
D180
E180
C300
E200
BC00
ENDCHAR

STARTCHAR char217
ENCODING 217
SWIDTH 45 0
DWIDTH 9 0
BBX 10 15 0 0
BITMAP
0400
0000
00C0
2080
2080
6180
6180
4100
4100
C100
C300
C300
C200
C600
7C00
ENDCHAR

STARTCHAR char218
ENCODING 218
SWIDTH 45 0
DWIDTH 9 0
BBX 10 16 0 0
BITMAP
0300
0200
0000
00C0
2080
2080
6180
6180
4100
4100
C100
C300
C300
C200
C600
7C00
ENDCHAR

STARTCHAR char219
ENCODING 219
SWIDTH 45 0
DWIDTH 9 0
BBX 10 15 0 0
BITMAP
0F00
0800
00C0
2080
2080
6180
6180
4100
4100
C100
C300
C300
C200
C600
7C00
ENDCHAR

STARTCHAR char220
ENCODING 220
SWIDTH 45 0
DWIDTH 9 0
BBX 10 15 0 0
BITMAP
0D00
0100
00C0
2080
2080
6180
6180
4100
4100
C100
C300
C300
C200
C600
7C00
ENDCHAR

STARTCHAR char221
ENCODING 221
SWIDTH 39 0
DWIDTH 18 0
BBX 0 0 0 0
BITMAP
ENDCHAR

STARTCHAR char222
ENCODING 222
SWIDTH 39 0
DWIDTH 18 0
BBX 0 0 0 0
BITMAP
ENDCHAR

STARTCHAR char223
ENCODING 223
SWIDTH 40 0
DWIDTH 8 0
BBX 8 12 0 0
BITMAP
1E
23
23
63
4E
4C
46
C6
C6
86
A4
B8
ENDCHAR

STARTCHAR char224
ENCODING 224
SWIDTH 35 0
DWIDTH 7 0
BBX 8 13 -1 0
BITMAP
18
08
08
00
1E
23
03
07
3E
C6
C6
CE
77
ENDCHAR

STARTCHAR char225
ENCODING 225
SWIDTH 35 0
DWIDTH 7 0
BBX 8 12 -1 0
BITMAP
02
04
00
1E
23
03
07
3E
C6
C6
CE
77
ENDCHAR

STARTCHAR char226
ENCODING 226
SWIDTH 35 0
DWIDTH 7 0
BBX 8 13 -1 0
BITMAP
04
0A
12
00
1E
23
03
07
3E
C6
C6
CE
77
ENDCHAR

STARTCHAR char227
ENCODING 227
SWIDTH 35 0
DWIDTH 7 0
BBX 8 12 -1 0
BITMAP
1E
00
00
1E
23
03
07
3E
C6
C6
CE
77
ENDCHAR

STARTCHAR char228
ENCODING 228
SWIDTH 35 0
DWIDTH 7 0
BBX 8 12 -1 0
BITMAP
13
02
00
1E
23
03
07
7E
C6
C6
CE
77
ENDCHAR

STARTCHAR char229
ENCODING 229
SWIDTH 35 0
DWIDTH 7 0
BBX 8 14 -1 0
BITMAP
0E
1A
1B
1E
00
1E
33
03
07
7A
C6
C6
CE
7F
ENDCHAR

STARTCHAR char230
ENCODING 230
SWIDTH 4 0
DWIDTH 11 0
BBX 12 10 -1 0
BITMAP
0040
3FE0
6330
0230
1FF0
7600
C600
C620
CE60
7BC0
ENDCHAR

STARTCHAR char231
ENCODING 231
SWIDTH 35 0
DWIDTH 7 0
BBX 7 13 0 -4
BITMAP
3C
46
46
C0
C0
C0
CC
C8
70
00
20
20
40
ENDCHAR

STARTCHAR char232
ENCODING 232
SWIDTH 35 0
DWIDTH 7 0
BBX 7 13 0 0
BITMAP
30
10
08
00
3C
44
46
FE
C0
C0
C6
CC
70
ENDCHAR

STARTCHAR char233
ENCODING 233
SWIDTH 35 0
DWIDTH 7 0
BBX 7 12 0 0
BITMAP
04
08
00
3C
46
46
FE
C0
C0
C6
CC
78
ENDCHAR

STARTCHAR char234
ENCODING 234
SWIDTH 35 0
DWIDTH 7 0
BBX 7 13 0 0
BITMAP
08
14
24
00
3C
46
46
FE
C0
C0
C6
CC
70
ENDCHAR

STARTCHAR char235
ENCODING 235
SWIDTH 35 0
DWIDTH 7 0
BBX 7 12 0 0
BITMAP
36
04
00
3C
46
46
FE
C0
C0
C6
CC
70
ENDCHAR

STARTCHAR char236
ENCODING 236
SWIDTH 15 0
DWIDTH 3 0
BBX 3 12 0 0
BITMAP
40
20
00
20
60
40
40
40
C0
C0
80
80
ENDCHAR

STARTCHAR char237
ENCODING 237
SWIDTH 15 0
DWIDTH 3 0
BBX 5 12 0 0
BITMAP
10
20
00
20
60
40
40
40
C0
C0
80
80
ENDCHAR

STARTCHAR char238
ENCODING 238
SWIDTH 15 0
DWIDTH 3 0
BBX 5 12 0 0
BITMAP
70
D8
00
20
60
40
40
40
C0
C0
80
80
ENDCHAR

STARTCHAR char239
ENCODING 239
SWIDTH 15 0
DWIDTH 3 0
BBX 5 12 0 0
BITMAP
58
10
00
20
60
40
40
40
C0
C0
80
80
ENDCHAR

STARTCHAR char241
ENCODING 241
SWIDTH 40 0
DWIDTH 8 0
BBX 8 12 0 0
BITMAP
1E
00
00
7F
63
43
47
46
C6
86
84
84
ENDCHAR

STARTCHAR char242
ENCODING 242
SWIDTH 40 0
DWIDTH 8 0
BBX 7 13 0 0
BITMAP
30
10
08
00
3C
66
46
C6
C6
C6
C4
CC
78
ENDCHAR

STARTCHAR char243
ENCODING 243
SWIDTH 40 0
DWIDTH 8 0
BBX 7 12 0 0
BITMAP
04
08
00
3C
66
46
C6
C6
C6
C4
CC
78
ENDCHAR

STARTCHAR char244
ENCODING 244
SWIDTH 40 0
DWIDTH 8 0
BBX 7 13 0 0
BITMAP
08
14
36
00
3C
66
46
C6
C6
C6
C4
CC
78
ENDCHAR

STARTCHAR char245
ENCODING 245
SWIDTH 40 0
DWIDTH 8 0
BBX 7 12 0 0
BITMAP
1E
00
00
3C
66
46
C6
C6
C6
C4
CC
78
ENDCHAR

STARTCHAR char246
ENCODING 246
SWIDTH 40 0
DWIDTH 8 0
BBX 7 12 0 0
BITMAP
16
04
08
3C
66
46
C6
C6
C6
C4
CC
78
ENDCHAR

STARTCHAR char247
ENCODING 247
SWIDTH 45 0
DWIDTH 9 0
BBX 9 5 0 2
BITMAP
1800
0000
FF80
0000
1800
ENDCHAR

STARTCHAR char248
ENCODING 248
SWIDTH 40 0
DWIDTH 8 0
BBX 8 10 -1 0
BITMAP
01
1F
33
25
65
69
53
62
66
BC
ENDCHAR

STARTCHAR char249
ENCODING 249
SWIDTH 40 0
DWIDTH 8 0
BBX 8 12 0 0
BITMAP
10
08
00
62
42
42
46
C6
C4
84
CC
7C
ENDCHAR

STARTCHAR char250
ENCODING 250
SWIDTH 40 0
DWIDTH 8 0
BBX 8 12 0 0
BITMAP
04
08
00
62
42
42
46
C6
C4
84
CC
7C
ENDCHAR

STARTCHAR char251
ENCODING 251
SWIDTH 40 0
DWIDTH 8 0
BBX 8 12 0 0
BITMAP
0C
12
00
62
42
42
46
C6
C4
84
CC
7C
ENDCHAR

STARTCHAR char252
ENCODING 252
SWIDTH 40 0
DWIDTH 8 0
BBX 8 12 0 0
BITMAP
12
04
00
62
42
42
46
C6
C4
C4
CC
7C
ENDCHAR

STARTCHAR char255
ENCODING 255
SWIDTH 30 0
DWIDTH 6 0
BBX 8 15 -2 -3
BITMAP
1A
02
00
33
32
36
34
24
28
28
38
30
30
30
E0
ENDCHAR
ENDFONT
